<svg xmlns="http://www.w3.org/2000/svg" width="256" height="256" viewBox="0 0 100 100"><path d="M32.93 37.44L32.93 37.44Q32.93 38.18 32.48 38.71Q32.03 39.24 31.45 39.51L31.45 39.51Q30.07 38.55 28.22 37.70Q26.36 36.86 23.39 36.86L23.39 36.86Q20.96 36.86 18.89 37.70Q16.82 38.55 15.29 40.19Q13.75 41.84 12.87 44.33Q12.00 46.82 12.00 50.05L12.00 50.05Q12.00 53.34 12.85 55.78Q13.70 58.21 15.21 59.86Q16.72 61.50 18.84 62.32Q20.96 63.14 23.55 63.14L23.55 63.14Q26.31 63.14 28.35 62.38Q30.39 61.61 31.77 60.55L31.77 60.55Q32.30 60.76 32.78 61.32Q33.25 61.87 33.25 62.61L33.25 62.61Q33.25 63.73 31.98 64.63L31.98 64.63Q30.76 65.48 28.64 66.14Q26.52 66.80 23.24 66.80L23.24 66.80Q19.90 66.80 17.03 65.74Q14.17 64.68 12.08 62.59Q9.99 60.49 8.77 57.37Q7.55 54.24 7.55 50.05L7.55 50.05Q7.55 45.87 8.79 42.71Q10.04 39.56 12.16 37.44Q14.28 35.32 17.11 34.26Q19.95 33.20 23.08 33.20L23.08 33.20Q25.25 33.20 27.08 33.57Q28.91 33.94 30.20 34.55Q31.50 35.16 32.22 35.93Q32.93 36.70 32.93 37.44ZM60.92 64.57L58.53 57.53L44.33 57.53Q43.96 58.59 43.53 59.83Q43.11 61.08 42.71 62.27Q42.32 63.46 41.94 64.50Q41.57 65.53 41.36 66.22L41.36 66.22Q40.62 66.54 39.61 66.54L39.61 66.54Q38.76 66.54 38.10 66.09Q37.44 65.63 37.44 64.63L37.44 64.63Q37.44 64.15 37.60 63.65Q37.76 63.14 37.97 62.56L37.97 62.56Q38.76 60.33 40.01 56.84Q41.26 53.34 42.71 49.39Q44.17 45.44 45.68 41.44Q47.19 37.44 48.46 34.26L48.46 34.26Q48.89 34.05 49.73 33.83Q50.58 33.62 51.48 33.62L51.48 33.62Q52.54 33.62 53.52 33.94Q54.51 34.26 54.77 35.00L54.77 35.00Q56.04 38.07 57.50 42.02Q58.96 45.97 60.44 50.11Q61.93 54.24 63.28 58.24Q64.63 62.24 65.69 65.48L65.69 65.48Q65.26 65.95 64.68 66.24Q64.10 66.54 63.36 66.54L63.36 66.54Q62.35 66.54 61.82 66.09Q61.29 65.63 60.92 64.57L60.92 64.57ZM51.64 37.23L51.43 37.23Q50.85 38.82 50.11 40.86Q49.36 42.90 48.57 45.12Q47.77 47.35 46.98 49.63Q46.18 51.91 45.50 53.97L45.50 53.97L57.42 53.97Q56.63 51.59 55.78 49.18Q54.93 46.77 54.16 44.54Q53.39 42.31 52.73 40.43Q52.07 38.55 51.64 37.23L51.64 37.23ZM80.85 63.20L80.85 63.20Q84.40 63.20 86.23 61.58Q88.05 59.96 88.05 57.42L88.05 57.42Q88.05 55.19 86.65 53.82Q85.24 52.44 82.22 51.54L82.22 51.54L77.61 50.16Q74.22 49.15 72.29 47.19Q70.35 45.23 70.35 41.89L70.35 41.89Q70.35 39.88 71.12 38.26Q71.89 36.64 73.32 35.53Q74.75 34.42 76.74 33.81Q78.73 33.20 81.22 33.20L81.22 33.20Q83.34 33.20 85.17 33.54Q86.99 33.89 88.35 34.50Q89.70 35.11 90.44 35.85Q91.18 36.59 91.18 37.39L91.18 37.39Q91.18 38.13 90.81 38.66Q90.44 39.19 89.86 39.51L89.86 39.51Q88.48 38.45 86.28 37.65Q84.08 36.86 81.38 36.86L81.38 36.86Q78.25 36.86 76.47 38.18Q74.70 39.51 74.70 41.89L74.70 41.89Q74.70 43.75 75.97 44.91Q77.24 46.08 80.21 46.93L80.21 46.93L83.44 47.88Q87.63 49.10 90.04 51.30Q92.45 53.50 92.45 57.42L92.45 57.42Q92.45 61.61 89.43 64.20Q86.41 66.80 80.85 66.80L80.85 66.80Q78.41 66.80 76.42 66.38Q74.43 65.95 73.03 65.26Q71.62 64.57 70.86 63.75Q70.09 62.93 70.09 62.14L70.09 62.14Q70.09 61.24 70.64 60.63Q71.20 60.02 71.94 59.75L71.94 59.75Q72.52 60.33 73.37 60.94Q74.22 61.55 75.33 62.06Q76.45 62.56 77.82 62.88Q79.20 63.20 80.85 63.20Z" fill="#fff"></path></svg>