<svg xmlns="http://www.w3.org/2000/svg" width="256" height="256" viewBox="0 0 100 100"><rect width="100" height="100" rx="50" fill="#000000"></rect><path fill="#fff" d="M36.80 40.28L36.80 40.28Q36.80 40.86 36.45 41.27Q36.10 41.68 35.65 41.88L35.65 41.88Q34.58 41.14 33.15 40.49Q31.71 39.83 29.42 39.83L29.42 39.83Q27.53 39.83 25.93 40.49Q24.33 41.14 23.14 42.41Q21.96 43.69 21.28 45.61Q20.60 47.54 20.60 50.04L20.60 50.04Q20.60 52.58 21.26 54.47Q21.91 56.35 23.08 57.63Q24.25 58.90 25.89 59.53Q27.53 60.17 29.54 60.17L29.54 60.17Q31.67 60.17 33.25 59.57Q34.83 58.98 35.90 58.16L35.90 58.16Q36.31 58.32 36.67 58.75Q37.04 59.18 37.04 59.76L37.04 59.76Q37.04 60.62 36.06 61.32L36.06 61.32Q35.12 61.97 33.48 62.48Q31.84 63.00 29.30 63.00L29.30 63.00Q26.71 63.00 24.50 62.18Q22.28 61.36 20.66 59.74Q19.04 58.12 18.10 55.70Q17.16 53.28 17.16 50.04L17.16 50.04Q17.16 46.80 18.12 44.36Q19.09 41.92 20.73 40.28Q22.37 38.64 24.56 37.82Q26.75 37.00 29.17 37.00L29.17 37.00Q30.85 37.00 32.27 37.29Q33.68 37.58 34.69 38.05Q35.69 38.52 36.24 39.11Q36.80 39.71 36.80 40.28ZM58.45 61.27L56.60 55.82L45.61 55.82Q45.33 56.64 45.00 57.61Q44.67 58.57 44.36 59.49Q44.05 60.41 43.77 61.21Q43.48 62.01 43.32 62.55L43.32 62.55Q42.74 62.79 41.96 62.79L41.96 62.79Q41.31 62.79 40.80 62.44Q40.28 62.09 40.28 61.32L40.28 61.32Q40.28 60.95 40.41 60.56Q40.53 60.17 40.69 59.72L40.69 59.72Q41.31 57.99 42.27 55.29Q43.23 52.58 44.36 49.53Q45.49 46.47 46.66 43.38Q47.83 40.28 48.81 37.82L48.81 37.82Q49.14 37.66 49.80 37.49Q50.45 37.33 51.15 37.33L51.15 37.33Q51.97 37.33 52.73 37.58Q53.48 37.82 53.69 38.40L53.69 38.40Q54.67 40.77 55.80 43.83Q56.93 46.88 58.08 50.08Q59.22 53.28 60.27 56.38Q61.32 59.47 62.14 61.97L62.14 61.97Q61.81 62.34 61.36 62.57Q60.91 62.79 60.33 62.79L60.33 62.79Q59.55 62.79 59.14 62.44Q58.73 62.09 58.45 61.27L58.45 61.27ZM51.27 40.12L51.11 40.12Q50.66 41.35 50.08 42.93Q49.51 44.51 48.89 46.23Q48.28 47.95 47.66 49.71Q47.05 51.48 46.52 53.07L46.52 53.07L55.74 53.07Q55.13 51.23 54.47 49.36Q53.81 47.50 53.22 45.78Q52.62 44.05 52.11 42.60Q51.60 41.14 51.27 40.12L51.27 40.12ZM73.86 60.21L73.86 60.21Q76.61 60.21 78.02 58.96Q79.44 57.71 79.44 55.74L79.44 55.74Q79.44 54.02 78.35 52.95Q77.27 51.89 74.93 51.19L74.93 51.19L71.36 50.12Q68.74 49.34 67.24 47.83Q65.74 46.31 65.74 43.73L65.74 43.73Q65.74 42.17 66.34 40.92Q66.93 39.67 68.04 38.81Q69.15 37.95 70.68 37.47Q72.22 37.00 74.15 37.00L74.15 37.00Q75.79 37.00 77.20 37.27Q78.62 37.54 79.66 38.01Q80.71 38.48 81.28 39.05Q81.86 39.63 81.86 40.24L81.86 40.24Q81.86 40.82 81.57 41.23Q81.28 41.64 80.83 41.88L80.83 41.88Q79.77 41.06 78.06 40.45Q76.36 39.83 74.27 39.83L74.27 39.83Q71.85 39.83 70.48 40.86Q69.11 41.88 69.11 43.73L69.11 43.73Q69.11 45.16 70.09 46.06Q71.07 46.97 73.37 47.62L73.37 47.62L75.87 48.36Q79.11 49.30 80.98 51.00Q82.84 52.71 82.84 55.74L82.84 55.74Q82.84 58.98 80.50 60.99Q78.17 63.00 73.86 63.00L73.86 63.00Q71.98 63.00 70.44 62.67Q68.90 62.34 67.81 61.81Q66.73 61.27 66.13 60.64Q65.54 60.00 65.54 59.39L65.54 59.39Q65.54 58.69 65.97 58.22Q66.40 57.75 66.97 57.54L66.97 57.54Q67.42 57.99 68.08 58.47Q68.74 58.94 69.60 59.33Q70.46 59.72 71.53 59.96Q72.59 60.21 73.86 60.21Z"></path></svg>